<?xml version="1.0" standalone="no"?>
<!DOCTYPE svg PUBLIC "-//W3C//DTD SVG 20010904//EN"
 "http://www.w3.org/TR/2001/REC-SVG-20010904/DTD/svg10.dtd">
<svg version="1.0" xmlns="http://www.w3.org/2000/svg"
 width="44.000000pt" height="40.000000pt" viewBox="0 0 44.000000 40.000000"
 preserveAspectRatio="xMidYMid meet">

<g transform="translate(0.000000,40.000000) scale(0.100000,-0.100000)"
fill="#000000" stroke="none">
<path d="M124 370 c-42 -21 -86 -60 -67 -60 5 0 24 11 43 25 46 34 99 47 152
38 38 -6 40 -8 18 -14 -14 -4 -32 -7 -40 -8 -13 -1 -13 0 0 10 24 17 -66 2
-103 -17 -25 -13 -28 -18 -15 -25 8 -5 23 -21 32 -36 l17 -28 -23 28 c-26 30
-40 32 -86 16 -28 -9 -31 -16 -37 -63 -12 -92 44 -188 124 -215 42 -14 114
-14 162 -1 100 28 155 187 94 271 -13 19 -29 44 -34 57 -6 12 -14 22 -18 23
-5 0 -19 3 -33 5 -91 16 -146 14 -186 -6z m216 -40 c0 -14 -10 -21 -35 -26
-40 -7 -48 -15 -39 -39 5 -12 14 -15 30 -11 13 4 24 2 24 -3 0 -5 3 -16 6 -24
4 -11 -4 -17 -25 -22 -33 -7 -32 0 -16 -132 3 -31 -8 -43 -38 -43 -7 0 -43 47
-82 104 -38 57 -79 107 -90 112 -29 13 -25 36 7 45 24 6 30 3 47 -24 11 -18
32 -48 46 -67 24 -31 26 -32 21 -10 -3 14 -7 49 -11 78 -4 41 -3 52 9 52 11 0
16 -19 21 -77 7 -93 15 -136 22 -129 3 3 0 51 -7 106 -6 56 -9 104 -6 107 9 9
100 31 109 26 4 -2 7 -13 7 -23z m-140 13 c-8 -3 -24 -10 -35 -15 -20 -9 -20
-9 -1 6 11 9 27 16 35 15 14 0 14 -1 1 -6z m198 -121 c5 -55 -23 -123 -58
-142 -25 -14 -25 -4 1 45 15 27 21 57 21 95 0 30 2 58 5 63 11 17 26 -13 31
-61z m-328 -36 c15 -47 35 -74 78 -108 12 -10 22 -22 22 -28 0 -13 -70 22 -92
47 -23 25 -48 87 -48 119 0 41 23 24 40 -30z"/>
</g>
</svg>
